<?xml version="1.0" encoding="UTF-8" standalone="no"?>
<svg width="192" height="192" viewBox="0 0 192 192" fill="none" xmlns="http://www.w3.org/2000/svg">
  <rect width="192" height="192" rx="24" fill="#6B21A8"/>
  <path d="M96 40C65.072 40 40 65.072 40 96C40 126.928 65.072 152 96 152C126.928 152 152 126.928 152 96C152 65.072 126.928 40 96 40ZM96 56C104.837 56 112 63.163 112 72C112 80.837 104.837 88 96 88C87.163 88 80 80.837 80 72C80 63.163 87.163 56 96 56ZM96 136C80 136 66.32 127.2 59.2 114.4C59.44 105.2 78.4 100 96 100C113.52 100 132.56 105.2 132.8 114.4C125.68 127.2 112 136 96 136Z" fill="white"/>
</svg>