<?xml version="1.0" encoding="UTF-8" standalone="no"?>
<svg width="512" height="512" viewBox="0 0 512 512" fill="none" xmlns="http://www.w3.org/2000/svg">
  <rect width="512" height="512" rx="48" fill="#6B21A8"/>
  <path d="M256 104C172.644 104 104 172.644 104 256C104 339.356 172.644 408 256 408C339.356 408 408 339.356 408 256C408 172.644 339.356 104 256 104ZM256 144C279.196 144 298 162.804 298 186C298 209.196 279.196 228 256 228C232.804 228 214 209.196 214 186C214 162.804 232.804 144 256 144ZM256 368C214 368 177.32 347.2 156.2 316.4C156.84 282.4 224.4 268 256 268C287.52 268 355.16 282.4 355.8 316.4C334.68 347.2 298 368 256 368Z" fill="white"/>
</svg>